<?xml version="1.0" standalone="no"?>
<!DOCTYPE svg PUBLIC "-//W3C//DTD SVG 20010904//EN"
 "http://www.w3.org/TR/2001/REC-SVG-20010904/DTD/svg10.dtd">
<svg version="1.0" xmlns="http://www.w3.org/2000/svg"
 width="720.000000pt" height="450.000000pt" viewBox="0 0 720.000000 450.000000"
 preserveAspectRatio="xMidYMid meet">

<g transform="translate(0.000000,450.000000) scale(0.100000,-0.100000)"
fill="#000000" stroke="none">
<path d="M0 2250 l0 -2250 3600 0 3600 0 0 2250 0 2250 -3600 0 -3600 0 0
-2250z m7185 0 l0 -2235 -3585 0 -3585 0 -3 2225 c-1 1224 0 2231 3 2237 3 10
731 12 3587 10 l3583 -2 0 -2235z"/>
<path d="M3327 2980 c-132 -13 -288 -38 -429 -71 -90 -21 -152 -29 -217 -29
l-91 0 0 -38 c0 -34 -4 -40 -37 -56 -139 -65 -277 -185 -324 -281 -36 -74 -34
-180 5 -254 38 -74 105 -143 201 -206 101 -67 237 -128 247 -112 17 27 5 43
-50 66 -156 67 -296 180 -342 275 -33 70 -32 147 4 220 31 62 122 152 207 203
88 52 89 52 89 -1 0 -39 3 -46 19 -46 11 0 34 18 51 40 31 39 34 41 84 38 l51
-3 0 -282 0 -283 27 -11 c15 -6 34 -19 44 -30 14 -16 31 -19 111 -19 87 0 93
1 93 20 0 12 -10 25 -25 32 l-25 11 0 284 0 283 744 0 744 0 32 -40 c17 -22
40 -40 51 -40 16 0 19 7 19 46 0 40 2 45 18 40 43 -17 129 -76 187 -129 183
-166 153 -360 -79 -515 -40 -27 -99 -61 -132 -76 -44 -21 -63 -36 -75 -62 -9
-19 -14 -34 -12 -34 3 0 41 16 86 36 169 74 306 186 363 295 39 74 41 180 5
254 -47 96 -185 216 -323 281 -34 16 -38 22 -38 56 l0 38 -91 0 c-65 0 -127 8
-219 30 -233 53 -382 71 -645 75 -132 2 -279 0 -328 -5z m663 -65 c69 -9 132
-21 140 -26 9 -5 -215 -8 -530 -8 -318 0 -539 3 -530 8 14 9 216 36 325 45
107 8 476 -4 595 -19z"/>
<path d="M3152 2647 l-32 -33 0 -226 0 -226 35 -31 c35 -30 38 -31 138 -31
l103 0 32 33 32 33 0 225 0 225 -33 32 c-33 32 -33 32 -138 32 l-105 0 -32
-33z m188 -257 l0 -180 -50 0 -50 0 0 160 0 160 -37 19 -38 20 88 1 87 0 0
-180z"/>
<path d="M3530 2666 c0 -9 11 -23 25 -32 l25 -16 0 -260 0 -259 47 3 c39 2 48
7 51 23 2 11 11 25 19 32 13 10 15 37 11 175 l-4 164 42 -121 c23 -66 54 -154
70 -195 l29 -75 83 -3 82 -3 0 291 0 290 -90 0 c-98 0 -109 -8 -66 -45 24 -20
25 -24 28 -187 3 -160 2 -165 -11 -115 -8 29 -40 117 -71 197 l-56 145 -107 3
c-90 2 -107 0 -107 -12z"/>
<path d="M4045 2669 c-4 -6 2 -21 14 -33 27 -29 27 -56 1 -56 -16 0 -20 -7
-20 -35 0 -34 1 -35 40 -35 l40 0 0 60 c0 51 -4 65 -25 85 -26 27 -40 31 -50
14z"/>
<path d="M4217 2642 l-37 -38 0 -100 0 -101 39 -31 c37 -30 45 -32 120 -32
l81 0 0 -60 0 -60 -55 0 c-52 0 -55 1 -55 25 0 24 -2 25 -66 25 l-65 0 3 -52
c3 -50 5 -53 33 -58 20 -3 34 -14 43 -33 13 -27 14 -27 109 -27 95 0 96 0 139
36 l44 35 0 109 0 108 -42 31 c-38 28 -49 31 -120 31 l-78 0 0 44 c0 43 -1 45
-42 59 l-43 15 98 1 97 1 0 -25 c0 -24 2 -25 65 -25 l65 0 0 44 c0 39 -4 47
-44 80 l-44 36 -104 0 -104 0 -37 -38z"/>
<path d="M2703 2128 c-22 -11 -30 -37 -16 -51 3 -4 15 1 26 10 20 17 20 17 14
-7 -13 -52 -30 -217 -24 -233 3 -9 13 -17 20 -17 10 0 16 20 21 71 5 47 11 69
19 66 7 -2 24 2 39 9 62 31 78 107 32 143 -29 23 -93 27 -131 9z m98 -18 c35
-19 21 -97 -21 -120 -18 -10 -19 -7 -17 60 2 72 5 77 38 60z"/>
<path d="M3697 2118 c-3 -13 -13 -74 -23 -135 -9 -62 -21 -113 -26 -113 -9 0
-4 80 8 122 3 9 -1 20 -8 24 -20 13 -72 13 -87 1 -21 -17 -51 -88 -51 -119 0
-16 -5 -28 -11 -28 -8 0 -9 22 -4 75 6 64 4 76 -10 81 -10 4 -27 -4 -47 -22
-19 -18 -29 -23 -25 -12 7 19 -20 46 -33 32 -4 -5 -10 -20 -12 -34 -4 -31 -22
-33 -26 -2 -4 29 -48 48 -70 30 -8 -7 -25 -30 -38 -50 -28 -44 -47 -48 -70
-12 -13 19 -14 28 -5 37 8 8 11 6 11 -10 0 -17 27 -41 35 -31 7 9 13 68 7 69
-42 7 -79 5 -89 -3 -17 -14 -16 -48 2 -72 20 -26 19 -33 -4 -41 -25 -8 -36
-41 -21 -60 17 -21 64 -19 83 3 10 10 17 31 17 45 0 15 5 27 10 27 6 0 10 -10
10 -23 0 -76 96 -52 116 30 10 38 23 26 26 -24 2 -36 7 -49 21 -51 13 -3 17 3
17 25 0 29 31 107 47 116 5 3 9 -25 9 -66 l-1 -72 55 -1 c37 -1 61 3 72 13 16
14 18 14 23 1 5 -12 25 -16 96 -16 77 0 91 3 103 19 13 19 13 19 31 -1 18 -20
18 -21 -18 -51 -56 -46 -48 -109 13 -109 40 0 70 38 70 88 0 46 11 57 54 54
16 -2 37 5 46 13 15 14 18 14 23 1 9 -22 113 -20 127 2 9 16 11 16 20 1 7 -13
25 -17 70 -17 53 0 63 3 80 26 11 14 23 36 26 49 7 27 39 31 53 6 7 -13 4 -20
-11 -28 -50 -25 -44 -75 9 -75 41 0 63 18 63 51 0 21 8 37 25 51 14 11 25 24
25 29 0 5 -9 0 -21 -12 -11 -11 -28 -19 -37 -17 -19 4 -44 47 -35 61 3 5 10
-1 17 -14 16 -33 36 -35 38 -5 0 14 1 31 2 38 1 15 -74 20 -91 6 -7 -6 -13
-21 -13 -35 0 -14 -4 -21 -10 -18 -5 3 -10 15 -10 26 0 30 -47 44 -72 22 -30
-27 -48 -68 -48 -108 0 -19 -4 -35 -10 -35 -15 0 -12 66 6 160 8 45 13 89 10
96 -10 25 -34 15 -40 -16 -3 -16 -9 -44 -12 -61 -4 -21 -10 -29 -20 -25 -35
13 -70 -29 -91 -109 l-13 -50 5 78 c3 42 2 77 -2 78 -61 9 -74 5 -98 -22 -24
-30 -48 -96 -39 -110 2 -4 -5 -14 -17 -23 -20 -14 -23 -13 -40 7 -18 22 -18
22 10 47 16 14 37 38 46 53 17 26 17 29 2 44 -15 15 -21 15 -72 -2 -58 -20
-62 -25 -44 -53 8 -13 7 -27 -4 -55 -27 -62 -40 -47 -32 37 6 64 4 74 -11 80
-9 4 -18 5 -20 3 -2 -2 -7 -38 -10 -80 -4 -42 -11 -77 -15 -77 -14 0 -11 69 7
160 8 45 13 89 10 96 -8 22 -33 16 -39 -8z m-92 -165 c-9 -59 -21 -83 -41 -83
-13 0 -15 7 -9 37 16 88 63 130 50 46z m305 37 c0 -12 -80 -94 -86 -88 -2 2 0
16 4 31 9 34 82 85 82 57z m110 -39 c-9 -74 -50 -114 -50 -48 0 32 32 97 48
97 5 0 6 -22 2 -49z m136 -45 c-8 -20 -20 -36 -27 -36 -18 0 -5 87 17 112 l19
20 3 -30 c2 -16 -4 -46 -12 -66z m-836 41 c0 -21 -34 -77 -46 -77 -25 0 -26
27 -5 76 20 45 22 46 36 28 8 -10 15 -23 15 -27z m1010 0 c0 -21 -34 -77 -46
-77 -25 0 -26 27 -5 76 20 45 22 46 36 28 8 -10 15 -23 15 -27z m-1172 -69
c-2 -13 -11 -24 -20 -26 -21 -4 -24 18 -6 36 19 19 30 14 26 -10z m1260 0 c-2
-13 -11 -24 -20 -26 -21 -4 -24 18 -6 36 19 19 30 14 26 -10z m-558 -86 c0
-37 -22 -67 -44 -59 -23 9 -20 43 6 67 29 27 38 25 38 -8z"/>
<path d="M3754 2075 c-8 -19 12 -36 33 -28 19 7 12 37 -10 41 -9 2 -20 -4 -23
-13z"/>
<path d="M2868 2013 c-40 -46 -53 -118 -28 -148 16 -19 60 -19 87 0 19 13 22
13 27 0 9 -25 35 -17 42 13 12 55 25 91 38 101 9 8 12 5 12 -11 -1 -31 30 -36
36 -6 3 13 9 31 13 40 13 32 -23 33 -56 2 -28 -27 -29 -27 -29 -6 0 12 -2 22
-4 22 -2 0 -11 3 -19 6 -12 4 -17 -7 -23 -52 -5 -40 -14 -65 -30 -81 -27 -27
-59 -30 -68 -7 -10 26 -7 34 14 34 26 0 70 43 70 68 0 10 -11 24 -25 30 -34
16 -39 15 -57 -5z m52 -22 c0 -6 -11 -23 -25 -38 -28 -32 -35 -12 -9 25 16 23
34 29 34 13z"/>
<path d="M2768 1916 c-3 -16 0 -27 9 -30 26 -10 32 -6 29 22 -4 35 -32 41 -38
8z"/>
<path d="M3014 1866 c-10 -26 3 -46 30 -46 13 0 33 -3 43 -7 17 -6 17 -6 1 14
-10 11 -18 25 -18 31 0 7 -4 12 -9 12 -5 0 -16 3 -25 6 -10 4 -18 0 -22 -10z"/>
<path d="M3177 1820 l-28 -17 48 -6 c26 -3 82 -9 123 -12 157 -12 180 -16 180
-31 0 -8 7 -14 16 -14 10 0 14 6 10 15 -5 13 11 15 109 15 113 0 114 0 133 28
l20 27 -171 1 c-95 0 -226 2 -292 5 -102 5 -124 3 -148 -11z"/>
<path d="M3958 1832 c-30 -3 -38 -7 -38 -23 0 -13 7 -19 21 -19 37 0 229 32
229 39 0 6 -146 8 -212 3z"/>
<path d="M4456 1764 c-3 -9 -6 -28 -6 -44 0 -16 -6 -31 -12 -33 -10 -4 -10 -6
0 -6 8 -1 12 -19 12 -56 0 -30 5 -55 10 -55 6 0 10 23 10 50 0 43 3 52 22 59
l22 8 -22 5 c-30 8 -31 58 -2 65 28 7 25 23 -4 23 -13 0 -27 -7 -30 -16z"/>
<path d="M2370 1670 l0 -100 50 0 c28 0 50 5 50 10 0 6 -18 10 -40 10 l-40 0
0 40 0 40 40 0 c22 0 40 5 40 10 0 6 -18 10 -40 10 -38 0 -40 2 -40 30 0 28 2
30 40 30 22 0 40 5 40 10 0 6 -22 10 -50 10 l-50 0 0 -100z"/>
<path d="M4527 1763 c-12 -11 -8 -23 8 -23 8 0 15 7 15 15 0 16 -12 20 -23 8z"/>
<path d="M4342 1739 c-19 -31 -9 -33 18 -4 16 17 19 25 9 25 -8 0 -20 -9 -27
-21z"/>
<path d="M2630 1720 c0 -11 -7 -23 -16 -27 -15 -5 -15 -7 0 -15 11 -6 16 -23
16 -58 0 -28 5 -50 10 -50 6 0 10 24 10 54 0 34 5 56 13 59 10 4 10 6 0 6 -7
1 -13 12 -13 26 0 14 -4 25 -10 25 -5 0 -10 -9 -10 -20z"/>
<path d="M2518 1689 c-28 -16 -21 -38 17 -60 19 -12 35 -25 35 -30 0 -16 -30
-22 -45 -9 -16 14 -31 8 -21 -8 9 -15 40 -20 65 -11 31 12 24 48 -13 68 -37
21 -34 37 7 34 30 -3 31 -2 13 12 -23 17 -34 18 -58 4z"/>
<path d="M2707 1682 c-21 -23 -22 -85 -3 -101 8 -7 23 -12 33 -11 10 0 30 1
46 1 26 1 27 3 27 59 0 49 -3 59 -17 59 -10 0 -29 3 -43 6 -18 5 -31 1 -43
-13z m67 -18 c33 -32 14 -77 -30 -72 -23 2 -30 8 -32 31 -6 49 30 73 62 41z"/>
<path d="M2891 1691 c-8 -5 -20 -7 -28 -4 -10 4 -13 -9 -13 -56 0 -34 4 -61
10 -61 6 0 10 19 10 43 0 46 13 67 41 67 21 0 29 -20 29 -71 0 -55 18 -49 22
7 2 31 9 51 20 58 29 18 38 -2 47 -96 1 -5 6 -8 11 -8 11 0 13 62 4 98 -7 26
-48 40 -68 22 -11 -8 -20 -8 -35 -1 -24 13 -32 13 -50 2z"/>
<path d="M3131 1691 c-8 -5 -20 -7 -28 -4 -10 4 -13 -14 -13 -86 0 -54 4 -91
10 -91 6 0 10 16 10 35 0 32 2 34 23 26 44 -16 77 12 77 65 0 47 -44 77 -79
55z m43 -24 c12 -9 17 -23 14 -42 -3 -27 -7 -30 -38 -30 -31 0 -35 3 -38 28
-6 48 26 70 62 44z"/>
<path d="M3263 1685 c-16 -11 -23 -26 -23 -49 0 -45 20 -69 56 -67 16 1 37 2
47 2 14 0 17 10 17 59 0 49 -3 59 -17 59 -10 -1 -27 2 -38 6 -12 3 -30 -1 -42
-10z m61 -18 c12 -9 17 -23 14 -42 -2 -25 -8 -31 -32 -33 -16 -2 -32 2 -37 10
-14 22 -10 56 9 67 22 13 25 13 46 -2z"/>
<path d="M3445 1690 c-4 -6 -15 -8 -26 -5 -17 6 -19 1 -19 -54 0 -47 3 -61 14
-61 11 0 16 15 18 53 3 45 6 52 26 55 12 2 22 8 22 13 0 12 -27 12 -35 -1z"/>
<path d="M3580 1680 c-41 -41 -18 -112 36 -111 67 1 64 -2 64 63 0 49 -3 59
-15 55 -8 -4 -17 -2 -20 3 -10 17 -44 11 -65 -10z m69 -14 c20 -24 10 -70 -17
-74 -46 -7 -69 40 -36 72 19 20 38 20 53 2z"/>
<path d="M3820 1680 c-20 -20 -26 -65 -12 -86 22 -33 87 -37 106 -5 10 16 -11
22 -24 6 -16 -19 -35 -19 -54 1 -26 26 -18 34 34 34 38 0 50 4 50 15 0 22 -37
55 -60 55 -11 0 -29 -9 -40 -20z m68 -17 c2 -9 -8 -13 -33 -13 -33 0 -36 2
-25 15 15 18 51 16 58 -2z"/>
<path d="M4047 1686 c-24 -25 -30 -53 -15 -83 15 -31 59 -43 84 -22 11 9 14 8
14 -8 0 -10 -5 -24 -12 -31 -17 -17 -57 -15 -64 3 -8 19 -24 19 -24 0 0 -18
31 -35 63 -35 42 0 57 29 57 108 0 61 -2 71 -17 71 -10 0 -30 3 -44 6 -17 5
-31 1 -42 -9z m67 -22 c33 -32 10 -79 -36 -72 -17 2 -24 11 -26 31 -6 49 30
73 62 41z"/>
<path d="M4231 1691 c-8 -5 -20 -7 -28 -4 -10 4 -13 -9 -13 -56 0 -34 4 -61
10 -61 6 0 10 16 10 36 0 42 15 74 35 74 8 0 15 5 15 10 0 12 -10 13 -29 1z"/>
<path d="M4300 1680 c-41 -41 -18 -112 36 -111 67 1 64 -2 64 63 0 49 -3 59
-15 55 -8 -4 -17 -2 -20 3 -10 17 -44 11 -65 -10z m69 -14 c20 -24 10 -70 -17
-74 -46 -7 -69 40 -36 72 19 20 38 20 53 2z"/>
<path d="M4605 1675 c-14 -13 -25 -31 -25 -40 0 -44 46 -79 89 -68 33 8 25 21
-16 25 -33 3 -38 7 -41 31 -5 39 15 60 50 53 30 -6 39 8 12 18 -28 11 -44 6
-69 -19z"/>
<path d="M4733 1685 c-16 -11 -23 -26 -23 -49 0 -45 20 -69 56 -67 16 1 37 2
47 2 14 0 17 10 17 59 0 49 -3 59 -17 59 -10 -1 -27 2 -38 6 -12 3 -30 -1 -42
-10z m61 -18 c12 -9 17 -23 14 -42 -2 -25 -8 -31 -32 -33 -16 -2 -32 2 -37 10
-14 22 -10 56 9 67 22 13 25 13 46 -2z"/>
<path d="M3500 1630 c0 -33 4 -60 10 -60 6 0 10 27 10 60 0 33 -4 60 -10 60
-6 0 -10 -27 -10 -60z"/>
<path d="M4530 1630 c0 -33 4 -60 10 -60 6 0 10 27 10 60 0 33 -4 60 -10 60
-6 0 -10 -27 -10 -60z"/>
</g>
</svg>
